<?xml version="1.0" encoding="utf-8"?>
<!-- Generator: Adobe Illustrator 22.1.0, SVG Export Plug-In . SVG Version: 6.00 Build 0)  -->
<svg version="1.1" id="Layer_1" xmlns="http://www.w3.org/2000/svg" xmlns:xlink="http://www.w3.org/1999/xlink" x="0px" y="0px"
	 width="1629.7px" height="2079.8px" viewBox="0 0 1629.7 2079.8" style="enable-background:new 0 0 1629.7 2079.8;"
	 xml:space="preserve">
<g>
	<path d="M1629.7,1109.9c0,9.2,0,18.4,0,27.6c-1.8,8.2-3.4,16.5-5.6,24.6c-11.8,43.3-37.6,77.9-68.3,109.4
		c-39.8,40.8-86.2,73.1-135.2,101.7c-21.1,12.3-37,28.5-49.5,49.5c-15.3,25.8-31.7,51.1-49.4,75.3c-32.8,44.9-70.3,85.2-119.8,112.2
		c-61.5,33.4-120.7,29.3-176.8-12.7c-41.9-31.3-71.3-73.2-96.7-118.1c-33.6-59.3-55.7-123.5-77.3-187.8c-1.2-3.7-2.6-7.3-4.1-11.3
		c3.2,92.7,6.7,184.6,9.3,276.5c2.5,87.9-8.9,174.2-33.1,258.8c-23.1,80.5-58,155.4-108.4,222.7c-13.4,17.9-28.1,34.7-50.7,41.5
		c-7.1,0-14.1,0-21.2,0c-1.2-0.6-2.4-1.7-3.7-1.8c-46.5-4-79.6-79-39.2-117.5c30.8-29.4,55.8-64.6,77-102.2
		c58.1-102.8,81.9-215.3,92.9-331.1c5.8-60.9,8.6-122,12.1-183.1c1.2-21.3,0.2-42.8,0.2-65.7c-1.5,4.3-2.6,7.4-3.6,10.6
		c-20.9,69.5-45.6,137.4-82.7,200.2c-24.4,41.4-52.8,79.6-92.1,108.3c-57.8,42.2-118.7,47.7-180.3,10.1
		c-24.8-15.1-47.6-34.4-68.6-54.5c-41.7-39.9-72.1-88.7-101.7-137.8c-9.9-16.4-23.4-28.5-39.4-39.1c-35.4-23.3-70.8-46.8-104.3-72.6
		c-36.3-28-66.9-62-88.7-102.9c-16.3-30.7-24.4-63.1-18.8-98.1c5.1-32.4,19.9-60.2,40.3-85.2c29.6-36.1,66.8-63,107-85.8
		c87.2-49.5,181.6-79,279.1-99.9c22-4.7,43.9-9.5,65.9-14.3c0-1,0-2,0-3c-8.1-2-16.1-4.4-24.3-5.9c-102.9-19-202.5-48.6-296.4-95.4
		c-51.7-25.8-98.9-57.8-134.8-104.2C10,572.2-5.9,531.2,2.1,483.7c6.5-38.5,26-70.7,50.4-100.1c38-45.7,83.5-83,134.9-111.8
		c38.3-21.5,65-51,86.8-88.3c32-54.6,71.3-103.8,122.4-142.3c43-32.4,90.2-49.8,144.8-37.1c40.6,9.4,71.7,34,99.3,63.7
		c42.4,45.7,71.2,99.9,95.5,156.7c32.8,77,53.2,157.8,70.2,239.5c2.1,10.1,5.1,20,7.7,30c3.4-3.9,4.3-7.3,5-10.7
		c18.1-86.5,38.8-172.3,72.2-254.4c27.7-68.1,63.3-131,118.4-181.3c60.4-55,130.7-62.6,200.9-21.4c30.6,17.9,55.6,42.3,79.1,68.4
		c32.7,36.5,60.5,76.5,84.6,119.1c10,17.7,23.5,30.9,41.1,41.5c28.4,17.1,56.1,35.5,82.9,55.1c29.4,21.5,56.5,45.9,79.6,74.4
		c26.3,32.4,44.9,68.2,51.8,109.7c0,9.2,0,18.4,0,27.6c-0.5,1.3-1.3,2.6-1.5,3.9c-4.4,35.3-20.9,64.9-43.1,91.7
		c-34.1,41.1-78.3,68.9-124.9,93.1c-91.3,47.3-188.7,76.7-289.4,95.8c-11.8,2.2-23.4,5.3-35.2,7.9c5.7,4.1,11.1,5.5,16.5,6.9
		c59.2,14.9,119,27.6,177.3,45.3c72.2,21.9,140.7,53,201.8,98.4c39.5,29.3,73.3,63.4,89.3,111.5
		C1624.1,1087.5,1626.7,1098.8,1629.7,1109.9z"/>
</g>
</svg>
